HIERARCHY
ROOT Hips
{
  OFFSET 0 0 0
  CHANNELS 6 Xposition Yposition Zposition Zrotation Yrotation Xrotation
  JOINT LeftThigh
  {
    OFFSET 8.409438 0 -5.917753
    CHANNELS 3 Zrotation Yrotation Xrotation
    JOINT LeftLeg
    {
      OFFSET 0 0 -42.358652
      CHANNELS 3 Zrotation Yrotation Xrotation
      JOINT LeftFoot
      {
        OFFSET 0 0 -39.357303
        CHANNELS 3 Zrotation Yrotation Xrotation
      }
    }
  }
  JOINT RightThigh
  {
    OFFSET -8.409438 0 -5.917753
    CHANNELS 3 Zrotation Yrotation Xrotation
    JOINT RightLeg
    {
      OFFSET 0 0 -42.358652
      CHANNELS 3 Zrotation Yrotation Xrotation
      JOINT RightFoot
      {
        OFFSET 0 0 -39.357303
        CHANNELS 3 Zrotation Yrotation Xrotation
      }
    }
  }
  JOINT SpineLow
  {
    OFFSET 0 0 4.719101
    CHANNELS 3 Zrotation Yrotation Xrotation
    JOINT SpineMid
    {
      OFFSET 0 0 12.899191
      CHANNELS 3 Zrotation Yrotation Xrotation
      JOINT Chest
      {
        OFFSET 0 0 12.899191
        CHANNELS 3 Zrotation Yrotation Xrotation
        JOINT LeftShoulder
        {
          OFFSET 7.550562 1.41573 9.438202
          CHANNELS 3 Zrotation Yrotation Xrotation
          JOINT LeftArm
          {
            OFFSET 9.155056 0 4.247191
            CHANNELS 3 Zrotation Yrotation Xrotation
            JOINT LeftForearm
            {
              OFFSET 0 0 25.771955
              CHANNELS 3 Zrotation Yrotation Xrotation
              JOINT LeftHand
              {
                OFFSET 0 0 25.197169
                CHANNELS 3 Zrotation Yrotation Xrotation
              }
            }
          }
        }
        JOINT RightShoulder
        {
          OFFSET -7.550562 1.41573 9.438202
          CHANNELS 3 Zrotation Yrotation Xrotation
          JOINT RightArm
          {
            OFFSET -9.155056 0 4.247191
            CHANNELS 3 Zrotation Yrotation Xrotation
            JOINT RightForearm
            {
              OFFSET 0 0 -25.771955
              CHANNELS 3 Zrotation Yrotation Xrotation
              JOINT RightHand
              {
                OFFSET 0 0 -25.197169
                CHANNELS 3 Zrotation Yrotation Xrotation
              }
            }
          }
        }
        JOINT Neck
        {
          OFFSET 0 0 15.101124
          CHANNELS 3 Zrotation Yrotation Xrotation
          JOINT Head
          {
            OFFSET 0 0 11.325843
            CHANNELS 3 Zrotation Yrotation Xrotation
            End Site
            {
              OFFSET 0 0 14.157303
            }
          }
        }
      }
    }
  }
}
MOTION
Frames: 5
Frame Time: 0.0
0.0  89.887642  0.0  1.709553  17.667995  -128.740384  5.436236  -4.853395  27.820874  -10.507929  7.735222  20.805724  -5.037257  1.030638  0.134737  -2.736208  13.099505  -92.873292  4.756115  16.244807  130.48207  17.612581  5.010665  6.211872  -3.055324  -1.593388  1.523727  -8.458421  -4.152839  4.363939  -8.458421  -4.152839  4.363939  2.939428  46.524551  39.502051  -169.193797  65.847649  -104.550304  -18.527204  -24.922406  40.32243  76.31328  14.024828  11.906197  19.90529  20.965559  57.597513  25.896974  25.851774  -6.427386  -22.865177  21.053983  -70.436869  81.000651  -26.470663  0.686025  -29.960334  15.247535  14.727507  -22.724733  10.755227  11.776713  
0.0  89.887642  0.0  1.657894  16.979198  -128.323902  5.532541  -4.574224  27.540039  -9.920536  7.32728  20.608532  -5.030688  0.876437  0.134354  -2.222093  13.97319  -92.138986  3.98093  15.398852  131.490516  17.337187  5.478157  5.459068  -3.092706  -1.604459  1.463286  -8.557844  -4.18836  4.202618  -8.557844  -4.18836  4.202618  2.505712  46.219545  38.718171  -168.824166  65.218587  -104.740472  -18.184715  -24.778779  39.468849  78.160008  15.790951  14.709138  19.914071  20.698226  57.204796  26.097537  26.516117  -6.333985  -23.939974  21.749674  -70.655635  80.998818  -28.66333  0.131459  -29.775471  15.193841  14.651264  -22.584337  10.722507  11.712246  
0.0  89.887642  0.0  1.630361  16.155313  -127.98279  5.415649  -4.280996  27.334356  -9.296727  6.812346  20.409808  -5.215429  0.763545  0.091173  -1.645754  14.454081  -91.514551  3.632421  14.595709  132.245528  17.342026  5.84131  5.134513  -3.124407  -1.594985  1.438254  -8.642334  -4.163738  4.134899  -8.642333  -4.163738  4.134899  2.22548  45.827403  37.96437  -167.719928  64.482853  -104.4706  -18.462818  -24.042298  38.949401  79.646838  17.456518  16.818896  20.12262  20.590345  56.76188  26.532097  27.084629  -6.182635  -24.912597  22.99278  -70.847994  82.54939  -30.839956  -1.728886  -29.472891  15.085588  14.622094  -22.356995  10.649009  11.677416  
0.0  89.887642  0.0  1.664223  15.340153  -127.699543  5.146273  -3.993986  27.203908  -9.172728  6.476051  20.033861  -4.929036  0.935936  0.031386  -1.039947  14.975459  -90.543016  3.051574  13.58451  133.119893  17.103214  6.243968  4.292214  -3.166412  -1.539033  1.438466  -8.753128  -4.008442  4.13032  -8.753128  -4.008442  4.13032  2.22265  45.361247  37.434941  -165.953397  63.538947  -103.629686  -18.685628  -23.098971  38.473773  80.203949  18.676264  18.481888  20.415661  20.278341  56.246284  26.747211  27.497724  -5.985556  -25.798157  25.311649  -71.40071  84.657659  -32.937104  -4.721833  -29.037673  14.838467  14.667854  -22.031529  10.470345  11.689271  
0.0  89.887642  0.0  1.712693  14.416768  -127.425781  4.689873  -3.772178  26.91257  -8.785871  6.623593  19.728501  -4.147921  1.11472  0.123838  -0.37666  15.344684  -89.300219  2.615947  12.741438  133.221869  17.248114  6.504214  3.949285  -3.18544  -1.486322  1.469064  -8.80303  -3.859401  4.207689  -8.80303  -3.859401  4.207689  2.276972  45.031516  36.903385  -164.065248  62.765294  -102.737362  -18.721119  -22.259502  37.996085  80.314379  18.717934  20.097642  20.616381  20.047281  55.631574  26.7947  27.643001  -5.91822  -26.31437  28.291481  -71.797525  86.813944  -34.491641  -7.640485  -28.626135  14.479  14.706612  -21.722304  10.206981  11.69227  
